<svg><path d="M 96.10942077636719 228.6008148193359 C 41.90658569335938 228.6008148193359 3 186.1581268310547 3 135.4939117431641 C 3 114.6487045288086 9.542055130004883 92.80167388916016 24.57855415344238 58.88047027587891 C 40.140380859375 23.77414894104004 62.70574188232422 1 90.93667602539062 1 L 101.2821731567383 1 C 129.238525390625 1 147.1497039794922 19.26095008850098 167.3696136474609 58.31651306152344 C 181.5565795898438 85.71916198730469 189.2188568115234 112.7332916259766 189.2188568115234 135.4939117431641 C 189.2188568115234 186.1581268310547 150.312255859375 228.6008148193359 96.10942077636719 228.6008148193359 Z M 96.10942077636719 207.9098358154297 C 138.4637451171875 207.9098358154297 168.5278625488281 175.1132659912109 168.5278625488281 135.4939117431641 C 168.5278625488281 116.3458251953125 161.7601318359375 92.48548126220703 148.9951477050781 67.82939147949219 C 132.0599212646484 35.11839294433594 118.8897018432617 21.69098281860352 101.2821731567383 21.69098281860352 L 90.93667602539062 21.69098281860352 C 73.08710479736328 21.69098281860352 56.09427642822266 38.84103393554688 43.49439239501953 67.26543426513672 C 29.54276084899902 98.73928070068359 23.69098091125488 118.281135559082 23.69098091125488 135.4939117431641 C 23.69098091125488 175.1132659912109 53.75511169433594 207.9098358154297 96.10942077636719 207.9098358154297 Z M 96.10942077636719 174.2869873046875 C 73.25479125976562 174.2869873046875 54.72745513916016 155.7596435546875 54.72745513916016 132.9050140380859 C 54.72745513916016 109.12353515625 73.57696533203125 83.76393127441406 96.10942077636719 83.76393127441406 C 118.6418685913086 83.76393127441406 137.4913940429688 109.12353515625 137.4913940429688 132.9050140380859 C 137.4913940429688 155.7596435546875 118.9640426635742 174.2869873046875 96.10942077636719 174.2869873046875 Z M 96.10942077636719 153.5959930419922 C 107.536735534668 153.5959930419922 116.800407409668 144.3323364257812 116.800407409668 132.9050140380859 C 116.800407409668 119.4445495605469 105.6587753295898 104.4549179077148 96.10942077636719 104.4549179077148 C 86.56006622314453 104.4549179077148 75.41843414306641 119.4445495605469 75.41843414306641 132.9050140380859 C 75.41843414306641 144.3323364257812 84.68210601806641 153.5959930419922 96.10942077636719 153.5959930419922 Z" fill="#000000" stroke="#707070" stroke-width="1" fill-rule="evenodd" /></svg>